<?xml version="1.0" encoding="utf-8"?>
<!-- Generator: Adobe Illustrator 21.1.0, SVG Export Plug-In . SVG Version: 6.00 Build 0)  -->
<svg version="1.1" id="_64_2px" xmlns="http://www.w3.org/2000/svg" xmlns:xlink="http://www.w3.org/1999/xlink" x="0px" y="0px"
	 viewBox="0 0 32 54" style="enable-background:new 0 0 32 54;" xml:space="preserve">
<style type="text/css">
	.st0{fill:#EAB318;}
</style>
<title>feature-1</title>
<path id="iphone" class="st0" d="M26.9,0H5.1C2.3,0,0,2.3,0,5.1v43.8C0,51.7,2.3,54,5.1,54h21.8c2.8,0,5.1-2.3,5.1-5.1V5.1
	C32,2.3,29.7,0,26.9,0z M30,48.9c0,1.7-1.4,3.1-3.1,3.1H5.1C3.4,52,2,50.6,2,48.9V41h28L30,48.9L30,48.9z M30,39H2V11h28V39z M30,9
	H2V5.1C2,3.4,3.4,2,5.1,2h21.8C28.6,2,30,3.4,30,5.1L30,9L30,9z M16,48c1.1,0,2-0.9,2-2s-0.9-2-2-2s-2,0.9-2,2S14.9,48,16,48
	C16,48,16,48,16,48L16,48z"/>
</svg>
