<?xml version="1.0" encoding="utf-8"?>
<!-- Generator: Adobe Illustrator 21.1.0, SVG Export Plug-In . SVG Version: 6.00 Build 0)  -->
<svg version="1.1" id="_64_2px" xmlns="http://www.w3.org/2000/svg" xmlns:xlink="http://www.w3.org/1999/xlink" x="0px" y="0px"
	 viewBox="0 0 54 43.9" style="enable-background:new 0 0 54 43.9;" xml:space="preserve">
<style type="text/css">
	.st0{fill:#EAB318;}
</style>
<title>feature-4</title>
<path id="download" class="st0" d="M28,39.9v-21h-2v21l-6-6l-2,1l9,9l9-9l-2-1L28,39.9z M50.8,16.5c-1.6-1.7-3.8-2.9-6.2-3.1
	C44,10.3,42.1,7.6,39.4,6c-2.5-1.3-5.4-1.5-8.1-0.5c-4-4.9-9.1-6.6-14.1-4.6C12,3,8.6,8.2,8.9,13.9c-4.4,1.4-9.1,6.9-8.9,12
	c0.3,5.4,4,10,10,10h4v-2h-4c-4.7,0-7.8-3.5-8-8s4.4-9.4,8.2-10.2l0.8-0.3c0,0,0-1.2-0.1-1.4c-0.3-4.9,2.5-9.4,7-11.3
	c4.3-1.7,8.8,0,12.2,4.5l0.4,0.6l0.7-0.3c2.3-1,4.9-0.9,7.1,0.2c2.2,1.2,3.7,3.5,4.3,6.8l0.2,0.8h0.8c2.1,0.1,4.1,1,5.6,2.6
	c1.7,1.5,2.6,3.7,2.6,6c-0.1,4.8-3.7,10-9,10h-3v2h3c6.2-0.3,10.8-6.4,11-12C54,21.1,52.9,18.4,50.8,16.5L50.8,16.5z"/>
</svg>
