<?xml version="1.0" encoding="utf-8"?>
<!-- Generator: Adobe Illustrator 21.1.0, SVG Export Plug-In . SVG Version: 6.00 Build 0)  -->
<svg version="1.1" id="_64_2px" xmlns="http://www.w3.org/2000/svg" xmlns:xlink="http://www.w3.org/1999/xlink" x="0px" y="0px"
	 viewBox="0 0 40 52" style="enable-background:new 0 0 40 52;" xml:space="preserve">
<style type="text/css">
	.st0{fill:#EAB318;}
</style>
<title>feature-new-1</title>
<path id="compass" class="st0" d="M24.3,12.5c3-2.4,3.5-6.8,1.1-9.8s-6.8-3.5-9.8-1.1s-3.5,6.8-1.1,9.8c0.3,0.4,0.7,0.8,1.1,1.1
	C4.9,14.9-1.9,25.6,0.5,36.4c2.4,10.8,13.1,17.6,23.9,15.2s17.6-13.1,15.2-23.9C37.8,20.1,31.9,14.2,24.3,12.5z M15,7
	c0-2.8,2.2-5,5-5s5,2.2,5,5s-2.2,5-5,5S15,9.8,15,7z M20,50c-9.9,0-18-8.1-18-18s8.1-18,18-18h0.1c9.9,0,18,8.1,17.9,18
	C38,42,29.9,50,20,50z M23.2,26.3c-3.1-1.8-7.1-0.7-8.9,2.4c-1.2,2-1.1,4.5,0,6.5l-4.8,7.3l7.3-4.8c3.2,1.7,7.1,0.5,8.8-2.7
	c1-1.9,1-4.2,0-6.1l4.8-7.5L23.2,26.3z M23.2,35.2c-1.8,1.8-4.6,1.8-6.4,0c-1.8-1.8-1.8-4.6,0-6.4s4.6-1.8,6.4,0
	c0.8,0.8,1.3,2,1.3,3.2C24.5,33.2,24,34.3,23.2,35.2L23.2,35.2z"/>
</svg>
